<svg id="visual" viewBox="0 0 1260 540" width="1260" height="540" xmlns="http://www.w3.org/2000/svg" xmlns:xlink="http://www.w3.org/1999/xlink" version="1.1"><path d="M0 78L19.2 76.2C38.3 74.3 76.7 70.7 114.8 71.5C153 72.3 191 77.7 229.2 84.3C267.3 91 305.7 99 343.8 100.3C382 101.7 420 96.3 458.2 91.8C496.3 87.3 534.7 83.7 572.8 83.2C611 82.7 649 85.3 687.2 91C725.3 96.7 763.7 105.3 801.8 107.5C840 109.7 878 105.3 916.2 104.8C954.3 104.3 992.7 107.7 1030.8 105.3C1069 103 1107 95 1145.2 89C1183.3 83 1221.7 79 1240.8 77L1260 75L1260 0L1240.8 0C1221.7 0 1183.3 0 1145.2 0C1107 0 1069 0 1030.8 0C992.7 0 954.3 0 916.2 0C878 0 840 0 801.8 0C763.7 0 725.3 0 687.2 0C649 0 611 0 572.8 0C534.7 0 496.3 0 458.2 0C420 0 382 0 343.8 0C305.7 0 267.3 0 229.2 0C191 0 153 0 114.8 0C76.7 0 38.3 0 19.2 0L0 0Z" fill="#71eb6f"></path><path d="M0 74L19.2 73.5C38.3 73 76.7 72 114.8 68C153 64 191 57 229.2 54.2C267.3 51.3 305.7 52.7 343.8 59.2C382 65.7 420 77.3 458.2 79.7C496.3 82 534.7 75 572.8 69.3C611 63.7 649 59.3 687.2 57.7C725.3 56 763.7 57 801.8 60.7C840 64.3 878 70.7 916.2 74.3C954.3 78 992.7 79 1030.8 79C1069 79 1107 78 1145.2 76.5C1183.3 75 1221.7 73 1240.8 72L1260 71L1260 0L1240.8 0C1221.7 0 1183.3 0 1145.2 0C1107 0 1069 0 1030.8 0C992.7 0 954.3 0 916.2 0C878 0 840 0 801.8 0C763.7 0 725.3 0 687.2 0C649 0 611 0 572.8 0C534.7 0 496.3 0 458.2 0C420 0 382 0 343.8 0C305.7 0 267.3 0 229.2 0C191 0 153 0 114.8 0C76.7 0 38.3 0 19.2 0L0 0Z" fill="#9eec57"></path><path d="M0 47L19.2 45C38.3 43 76.7 39 114.8 37.3C153 35.7 191 36.3 229.2 41.2C267.3 46 305.7 55 343.8 55.2C382 55.3 420 46.7 458.2 41.7C496.3 36.7 534.7 35.3 572.8 37.2C611 39 649 44 687.2 49.5C725.3 55 763.7 61 801.8 62.3C840 63.7 878 60.3 916.2 58.3C954.3 56.3 992.7 55.7 1030.8 54.8C1069 54 1107 53 1145.2 51.2C1183.3 49.3 1221.7 46.7 1240.8 45.3L1260 44L1260 0L1240.8 0C1221.7 0 1183.3 0 1145.2 0C1107 0 1069 0 1030.8 0C992.7 0 954.3 0 916.2 0C878 0 840 0 801.8 0C763.7 0 725.3 0 687.2 0C649 0 611 0 572.8 0C534.7 0 496.3 0 458.2 0C420 0 382 0 343.8 0C305.7 0 267.3 0 229.2 0C191 0 153 0 114.8 0C76.7 0 38.3 0 19.2 0L0 0Z" fill="#c5eb42"></path><path d="M0 38L19.2 38C38.3 38 76.7 38 114.8 36.5C153 35 191 32 229.2 29C267.3 26 305.7 23 343.8 23.7C382 24.3 420 28.7 458.2 29.8C496.3 31 534.7 29 572.8 30.2C611 31.3 649 35.7 687.2 35.3C725.3 35 763.7 30 801.8 28.3C840 26.7 878 28.3 916.2 30C954.3 31.7 992.7 33.3 1030.8 31.7C1069 30 1107 25 1145.2 22.3C1183.3 19.7 1221.7 19.3 1240.8 19.2L1260 19L1260 0L1240.8 0C1221.7 0 1183.3 0 1145.2 0C1107 0 1069 0 1030.8 0C992.7 0 954.3 0 916.2 0C878 0 840 0 801.8 0C763.7 0 725.3 0 687.2 0C649 0 611 0 572.8 0C534.7 0 496.3 0 458.2 0C420 0 382 0 343.8 0C305.7 0 267.3 0 229.2 0C191 0 153 0 114.8 0C76.7 0 38.3 0 19.2 0L0 0Z" fill="#ebe832"></path></svg>